{
  "accessors": [
    {
      "bufferView": 2,
      "componentType": 5126,
      "count": 40164,
      "max": [
        38.021793365478516,
        18.876052856445313,
        0.07849600166082382
      ],
      "min": [
        -41.64240264892578,
        -23.968212127685547,
        -184.31175231933594
      ],
      "type": "VEC3"
    },
    {
      "bufferView": 2,
      "byteOffset": 481968,
      "componentType": 5126,
      "count": 40164,
      "max": [
        0.9999866485595703,
        0.9999834299087524,
        0.999999463558197
      ],
      "min": [
        -0.9999985098838806,
        -0.9999719858169556,
        -0.9998555779457092
      ],
      "type": "VEC3"
    },
    {
      "bufferView": 1,
      "componentType": 5126,
      "count": 40164,
      "max": [
        0.9954169988632202,
        0.9944549798965454
      ],
      "min": [
        0.004720000084489584,
        0.007718999870121479
      ],
      "type": "VEC2"
    },
    {
      "bufferView": 0,
      "componentType": 5125,
      "count": 461640,
      "type": "SCALAR"
    }
  ],
  "asset": {
    "extras": {
      "author": "OverseerThuror (https://sketchfab.com/OverseerThuror)",
      "license": "CC-BY-4.0 (http://creativecommons.org/licenses/by/4.0/)",
      "source": "https://sketchfab.com/3d-models/full-body-scan-clean-pose-ae9559912f6240a8a87057911b69edd0",
      "title": "Full Body Scan - Clean Pose"
    },
    "generator": "Sketchfab-13.65.0",
    "version": "2.0"
  },
  "bufferViews": [
    {
      "buffer": 0,
      "byteLength": 1846560,
      "name": "floatBufferViews",
      "target": 34963
    },
    {
      "buffer": 0,
      "byteLength": 321312,
      "byteOffset": 1846560,
      "byteStride": 8,
      "name": "floatBufferViews",
      "target": 34962
    },
    {
      "buffer": 0,
      "byteLength": 963936,
      "byteOffset": 2167872,
      "byteStride": 12,
      "name": "floatBufferViews",
      "target": 34962
    }
  ],
  "buffers": [
    {
      "byteLength": 3131808,
      "uri": "scene.bin"
    }
  ],
  "extensionsUsed": [
    "KHR_materials_unlit"
  ],
  "images": [
    {
      "uri": "textures/Default_OBJ.001_baseColor.jpeg"
    }
  ],
  "materials": [
    {
      "doubleSided": true,
      "extensions": {
        "KHR_materials_unlit": {}
      },
      "name": "Default_OBJ.001",
      "pbrMetallicRoughness": {
        "baseColorTexture": {
          "index": 0
        },
        "metallicFactor": 0.0
      }
    }
  ],
  "meshes": [
    {
      "name": "Object_0",
      "primitives": [
        {
          "attributes": {
            "NORMAL": 1,
            "POSITION": 0,
            "TEXCOORD_0": 2
          },
          "indices": 3,
          "material": 0,
          "mode": 4
        }
      ]
    }
  ],
  "nodes": [
    {
      "children": [
        1
      ],
      "matrix": [
        1.0,
        0.0,
        0.0,
        0.0,
        0.0,
        2.220446049250313e-16,
        -1.0,
        0.0,
        0.0,
        1.0,
        2.220446049250313e-16,
        0.0,
        0.0,
        0.0,
        0.0,
        1.0
      ],
      "name": "Sketchfab_model"
    },
    {
      "children": [
        2
      ],
      "name": "root"
    },
    {
      "children": [
        3
      ],
      "matrix": [
        1.0,
        0.0,
        0.0,
        0.0,
        0.0,
        2.220446049250313e-16,
        1.0,
        0.0,
        0.0,
        -1.0,
        2.220446049250313e-16,
        0.0,
        0.0,
        0.0,
        0.0,
        1.0
      ],
      "name": "GLTF_SceneRootNode"
    },
    {
      "children": [
        4
      ],
      "matrix": [
        0.05841239670422782,
        3.4831372786037207e-09,
        0.9982925382428078,
        0.0,
        -0.9982925382428007,
        -1.1915839137621731e-07,
        0.05841239670422782,
        0.0,
        1.1915839132070616e-07,
        -0.9999999999999929,
        -3.483137334114872e-09,
        0.0,
        0.0,
        0.0,
        0.21576690673828125,
        1.0
      ],
      "name": "Eric_Lowpoly.001_2"
    },
    {
      "mesh": 0,
      "name": "Object_4"
    }
  ],
  "samplers": [
    {
      "magFilter": 9729,
      "minFilter": 9987,
      "wrapS": 10497,
      "wrapT": 10497
    }
  ],
  "scene": 0,
  "scenes": [
    {
      "name": "Sketchfab_Scene",
      "nodes": [
        0
      ]
    }
  ],
  "textures": [
    {
      "sampler": 0,
      "source": 0
    }
  ]
}
